<svg xmlns="http://www.w3.org/2000/svg" width="110" height="80" viewBox="0 0 110 80">
  <path id="cc-mastercard" d="M92.22,100.375a2.139,2.139,0,1,1-2.139-2.089A2.062,2.062,0,0,1,92.22,100.375ZM32.866,98.286a2.089,2.089,0,1,0,2.082,2.089A2.036,2.036,0,0,0,32.866,98.286Zm22.439-.054a1.728,1.728,0,0,0-1.814,1.554h3.648A1.717,1.717,0,0,0,55.306,98.232Zm20.587.054a2.09,2.09,0,1,0,2.139,2.089A2.04,2.04,0,0,0,75.892,98.286Zm20.224,4.661c0,.054.057.089.057.2,0,.054-.057.089-.057.2-.057.054-.057.089-.1.143a.253.253,0,0,1-.21.089c-.057.054-.1.054-.21.054a.4.4,0,0,1-.21-.054c-.057,0-.1-.054-.153-.089-.057-.054-.1-.089-.1-.143a.309.309,0,0,1-.057-.2c0-.089,0-.143.057-.2a.327.327,0,0,1,.1-.2.679.679,0,0,1,.153-.089.366.366,0,0,1,.21-.054.265.265,0,0,1,.21.054c.1.054.153.054.21.089S96.059,102.857,96.116,102.946Zm-.42.25c.1,0,.1-.054.153-.054a.207.207,0,0,0,0-.286c-.057,0-.1-.054-.21-.054h-.306v.625h.153v-.25h.057l.21.25h.153l-.21-.232ZM110,41.571v62.857c0,4.732-4.106,8.571-9.167,8.571H9.167C4.106,113,0,109.161,0,104.429V41.571C0,36.839,4.106,33,9.167,33h91.667C105.894,33,110,36.839,110,41.571ZM12.222,66.5c0,13.661,11.859,24.732,26.45,24.732a27.965,27.965,0,0,0,14.609-4.125c-13.922-10.589-13.826-30.571,0-41.161a27.8,27.8,0,0,0-14.609-4.125C24.082,41.8,12.222,52.893,12.222,66.5ZM55,85.929c13.464-9.821,13.406-28.964,0-38.839C41.594,56.964,41.536,76.125,55,85.929ZM27.825,99.554a2.592,2.592,0,0,0-2.807-2.625,2.8,2.8,0,0,0-2.444,1.161,2.578,2.578,0,0,0-2.33-1.161,2.485,2.485,0,0,0-2.024.964v-.786H16.653v6.554h1.566c0-3.375-.477-5.393,1.719-5.393,1.948,0,1.566,1.821,1.566,5.393h1.509c0-3.268-.477-5.393,1.719-5.393,1.948,0,1.566,1.786,1.566,5.393h1.566V99.554ZM36.4,97.107H34.891v.786a2.831,2.831,0,0,0-2.234-.964,3.447,3.447,0,1,0,0,6.893,2.722,2.722,0,0,0,2.234-.964v.821H36.4Zm7.734,4.571c0-2.679-4.373-1.464-4.373-2.714,0-1.018,2.273-.857,3.533-.2l.63-1.161c-1.8-1.089-5.767-1.071-5.767,1.464,0,2.554,4.373,1.482,4.373,2.679,0,1.125-2.578,1.036-3.953.143l-.668,1.125C40.047,104.375,44.134,104.089,44.134,101.679Zm6.76,1.661-.42-1.214c-.726.375-2.33.786-2.33-.732V98.429h2.5V97.107h-2.5v-2H46.578v2H45.127v1.3h1.451v2.982c0,3.143,3.3,2.571,4.316,1.946Zm2.54-2.393h5.252c0-2.893-1.413-4.036-3.323-4.036a3.32,3.32,0,0,0-3.476,3.446c0,3.661,4.316,4.268,6.455,2.536l-.726-1.071C56.127,102.964,53.873,102.857,53.434,100.946ZM64.72,97.107a2.331,2.331,0,0,0-2.9.786v-.786H60.252v6.554h1.566v-3.7c0-2.071,1.814-1.8,2.444-1.5Zm2.024,3.268c0-2.036,2.215-2.7,3.953-1.5l.726-1.161c-2.215-1.625-6.245-.732-6.245,2.679,0,3.536,4.278,4.25,6.245,2.679l-.726-1.161C68.941,103.071,66.745,102.375,66.745,100.375Zm12.738-3.268H77.917v.786c-1.585-1.964-5.71-.857-5.71,2.482,0,3.429,4.278,4.411,5.71,2.482v.821h1.566Zm6.436,0a2.393,2.393,0,0,0-2.9.786v-.786H81.507v6.554h1.509v-3.7c0-1.964,1.719-1.839,2.444-1.5l.458-1.357Zm7.7-2.661H92.106v3.446c-1.566-1.946-5.71-.911-5.71,2.482,0,3.464,4.3,4.393,5.71,2.482v.821h1.509Zm1.451-13.411v.821h.153v-.821h.363v-.143H94.7v.143h.363Zm1.26,22.107a.514.514,0,0,0-.057-.286c-.057-.054-.1-.143-.153-.2s-.153-.089-.21-.143c-.1,0-.21-.054-.306-.054a2.152,2.152,0,0,1-.267.054,1,1,0,0,0-.21.143.28.28,0,0,0-.153.2.514.514,0,0,0-.057.286.491.491,0,0,0,.057.25.28.28,0,0,0,.153.2.661.661,0,0,0,.21.143.55.55,0,0,0,.267.054.618.618,0,0,0,.306-.054c.057-.054.153-.089.21-.143s.1-.143.153-.2A.491.491,0,0,0,96.326,103.143Zm.611-22.268H96.67l-.306.625-.306-.625h-.267v.964h.153v-.732l.306.625h.21l.267-.625v.732h.21Zm.84-14.375c0-13.607-11.859-24.7-26.45-24.7a27.965,27.965,0,0,0-14.609,4.125c13.769,10.589,13.979,30.625,0,41.161a27.9,27.9,0,0,0,14.609,4.125C85.918,91.232,97.778,80.161,97.778,66.5Z" transform="translate(0 -33)" fill="#b7b1b1"/>
</svg>
