<svg xmlns="http://www.w3.org/2000/svg" width="110" height="80" viewBox="0 0 110 80">
  <path id="cc-paypal" d="M35.578,72.393a3.978,3.978,0,0,1-4.2,3.839c-1.757,0-3.056-.929-3.056-2.679a4.009,4.009,0,0,1,4.144-3.929C34.241,69.625,35.578,70.643,35.578,72.393Zm-20.2-8.661h-.9a.589.589,0,0,0-.611.482l-.821,4.768,1.566-.054c2.1,0,3.724-.268,4.106-2.536C19.155,64,17.531,63.732,15.373,63.732Zm54.236,0H68.75a.552.552,0,0,0-.611.482l-.8,4.768,1.528-.054c2.483,0,4.2-.536,4.2-3.214-.019-1.893-1.833-1.982-3.457-1.982ZM110,40.571v62.857c0,4.732-4.106,8.571-9.167,8.571H9.167C4.106,112,0,108.161,0,103.429V40.571C0,35.839,4.106,32,9.167,32h91.667C105.894,32,110,35.839,110,40.571ZM24.5,64.75c0-3.75-3.094-5-6.627-5H10.236a.987.987,0,0,0-.993.839L6.111,78.821a.627.627,0,0,0,.611.714h3.628a1.179,1.179,0,0,0,1.05-1.018l.859-4.75c.191-1.286,2.521-.839,3.438-.839,5.462,0,8.8-3.036,8.8-8.179Zm16.08,1.571H36.953c-.726,0-.764.982-.8,1.464C35.043,66.268,33.439,66,31.625,66a8.229,8.229,0,0,0-8.25,8.071c0,3.482,2.33,5.75,6.054,5.75A7.68,7.68,0,0,0,34.49,77.7,4.489,4.489,0,0,0,34.3,78.8c0,.411.191.714.611.714h3.285a1.216,1.216,0,0,0,1.05-1.018l1.948-11.482a.62.62,0,0,0-.611-.7ZM48.316,83.8,60.481,67.268a.351.351,0,0,0,.1-.3.656.656,0,0,0-.611-.625H56.3a1.1,1.1,0,0,0-.859.446L50.378,73.75l-2.1-6.7a1.154,1.154,0,0,0-1.05-.714H43.656a.656.656,0,0,0-.611.625c0,.214,3.724,10.143,4.049,11.089-.516.679-3.915,5.107-3.915,5.643a.6.6,0,0,0,.611.571h3.667A1.142,1.142,0,0,0,48.316,83.8ZM78.738,64.75c0-3.75-3.094-5-6.627-5H64.53a1.033,1.033,0,0,0-1.05.839L60.385,78.8a.649.649,0,0,0,.611.714h3.915a.808.808,0,0,0,.764-.571l.859-5.179c.191-1.286,2.521-.839,3.437-.839,5.424,0,8.766-3.036,8.766-8.179Zm16.08,1.571H91.189c-.726,0-.764.982-.821,1.464C89.318,66.268,87.694,66,85.842,66a8.229,8.229,0,0,0-8.25,8.071c0,3.482,2.33,5.75,6.054,5.75A7.452,7.452,0,0,0,88.707,77.7a7.464,7.464,0,0,0-.191,1.107c0,.411.191.714.611.714h3.3a1.216,1.216,0,0,0,1.05-1.018l1.948-11.482a.62.62,0,0,0-.611-.7Zm9.071-5.946a.619.619,0,0,0-.611-.625H99.745a.623.623,0,0,0-.611.482L96.04,78.8l-.057.089a.655.655,0,0,0,.668.625H99.8A1.14,1.14,0,0,0,100.8,78.5l3.094-18.071ZM86.7,69.625a4,4,0,0,0-4.144,3.929c0,1.732,1.337,2.679,3.094,2.679A3.95,3.95,0,0,0,89.8,72.393C89.814,70.643,88.477,69.625,86.7,69.625Z" transform="translate(0 -32)" fill="#b7b1b1"/>
</svg>
