<svg xmlns="http://www.w3.org/2000/svg" width="110" height="80" viewBox="0 0 110 80">
  <path id="cc-visa" d="M89.776,67.589s1.451,6.643,1.776,8.036H85.174c.63-1.589,3.056-7.768,3.056-7.768-.038.054.63-1.625,1.012-2.661l.535,2.393ZM110,40.571v62.857c0,4.732-4.106,8.571-9.167,8.571H9.167C4.106,112,0,108.161,0,103.429V40.571C0,35.839,4.106,32,9.167,32h91.667C105.894,32,110,35.839,110,40.571ZM29.123,85.429,41.193,57.714H33.076L25.571,76.643,24.75,72.8l-2.674-12.75c-.439-1.768-1.8-2.268-3.476-2.339H6.245l-.134.554a31.529,31.529,0,0,1,8.059,3.054l6.837,24.107Zm18.028.036,4.813-27.75H44.286l-4.793,27.75h7.658Zm26.717-9.071c.038-3.161-2.024-5.571-6.436-7.554C64.74,67.571,63.1,66.714,63.1,65.411c.038-1.179,1.394-2.393,4.411-2.393a13.944,13.944,0,0,1,5.71,1.054l.688.3,1.05-6A20.238,20.238,0,0,0,68.082,57.2c-7.582,0-12.91,3.786-12.948,9.179-.057,3.982,3.819,6.2,6.722,7.536,2.96,1.357,3.972,2.25,3.972,3.446-.038,1.857-2.406,2.714-4.6,2.714a16.187,16.187,0,0,1-7.2-1.482l-1.012-.446-1.069,6.232A24.864,24.864,0,0,0,60.5,85.857c8.059.018,13.311-3.714,13.368-9.464Zm26.965,9.071-6.187-27.75H88.707c-1.833,0-3.227.5-4.01,2.3L73.3,85.464h8.059s1.318-3.429,1.6-4.161h9.854c.229.982.917,4.161.917,4.161Z" transform="translate(0 -32)" fill="#b7b1b1"/>
</svg>
