<svg xmlns="http://www.w3.org/2000/svg" width="110" height="80" viewBox="0 0 110 80">
  <path id="credit-card-solid" d="M12.222,32C5.481,32,0,37.125,0,43.429v5.714H110V43.429C110,37.125,104.519,32,97.778,32ZM110,66.286H0v34.286C0,106.875,5.481,112,12.222,112H97.778c6.741,0,12.222-5.125,12.222-11.429ZM21.389,89.143H33.611a2.864,2.864,0,1,1,0,5.714H21.389a2.864,2.864,0,1,1,0-5.714ZM42.778,92a2.97,2.97,0,0,1,3.056-2.857H70.278a2.864,2.864,0,1,1,0,5.714H45.833A2.97,2.97,0,0,1,42.778,92Z" transform="translate(0 -32)" fill="#b7b1b1"/>
</svg>
