<svg xmlns="http://www.w3.org/2000/svg" width="110" height="80" viewBox="0 0 110 80">
  <path id="money-bill-solid" d="M12.222,64C5.481,64,0,69.979,0,77.333v53.333C0,138.021,5.481,144,12.222,144H97.778c6.741,0,12.222-5.979,12.222-13.333V77.333C110,69.979,104.519,64,97.778,64Zm12.222,66.667H12.222V117.333C18.964,117.333,24.444,123.313,24.444,130.667Zm-12.222-40V77.333H24.444C24.444,84.688,18.964,90.667,12.222,90.667Zm73.333,40c0-7.354,5.481-13.333,12.222-13.333v13.333Zm12.222-40c-6.741,0-12.222-5.979-12.222-13.333H97.778ZM55,84c10.125,0,18.333,8.954,18.333,20S65.125,124,55,124s-18.333-8.954-18.333-20S44.875,84,55,84Z" transform="translate(0 -64)" fill="#b7b1b1"/>
</svg>
